<svg xmlns="http://www.w3.org/2000/svg" version="1.1" xmlns:xlink="http://www.w3.org/1999/xlink" xmlns:svgjs="http://svgjs.dev/svgjs" width="1440" height="660" preserveAspectRatio="none" viewBox="0 0 1440 660"><g mask="url(&quot;#SvgjsMask1030&quot;)" fill="none"><rect width="1440" height="660" x="0" y="0" fill="rgba(189, 224, 254, 1)"></rect><path d="M719 329L283 -107" stroke-width="10" stroke="url(&quot;#SvgjsLinearGradient1031&quot;)" stroke-linecap="round" class="BottomRight"></path><path d="M21 391L274 644" stroke-width="8" stroke="url(&quot;#SvgjsLinearGradient1031&quot;)" stroke-linecap="round" class="BottomRight"></path><path d="M1284 256L1625 597" stroke-width="10" stroke="url(&quot;#SvgjsLinearGradient1031&quot;)" stroke-linecap="round" class="BottomRight"></path><path d="M925 27L1127 229" stroke-width="10" stroke="url(&quot;#SvgjsLinearGradient1031&quot;)" stroke-linecap="round" class="BottomRight"></path><path d="M558 281L71 -206" stroke-width="8" stroke="url(&quot;#SvgjsLinearGradient1032&quot;)" stroke-linecap="round" class="TopLeft"></path><path d="M315 463L558 706" stroke-width="6" stroke="url(&quot;#SvgjsLinearGradient1031&quot;)" stroke-linecap="round" class="BottomRight"></path><path d="M1380 182L1574 376" stroke-width="8" stroke="url(&quot;#SvgjsLinearGradient1032&quot;)" stroke-linecap="round" class="TopLeft"></path><path d="M207 260L-13 40" stroke-width="8" stroke="url(&quot;#SvgjsLinearGradient1031&quot;)" stroke-linecap="round" class="BottomRight"></path><path d="M1277 526L1562 811" stroke-width="8" stroke="url(&quot;#SvgjsLinearGradient1032&quot;)" stroke-linecap="round" class="TopLeft"></path><path d="M619 62L341 -216" stroke-width="8" stroke="url(&quot;#SvgjsLinearGradient1031&quot;)" stroke-linecap="round" class="BottomRight"></path><path d="M205 211L544 550" stroke-width="10" stroke="url(&quot;#SvgjsLinearGradient1032&quot;)" stroke-linecap="round" class="TopLeft"></path><path d="M1322 378L1802 858" stroke-width="8" stroke="url(&quot;#SvgjsLinearGradient1032&quot;)" stroke-linecap="round" class="TopLeft"></path><path d="M1074 333L616 -125" stroke-width="6" stroke="url(&quot;#SvgjsLinearGradient1031&quot;)" stroke-linecap="round" class="BottomRight"></path><path d="M226 221L605 600" stroke-width="8" stroke="url(&quot;#SvgjsLinearGradient1031&quot;)" stroke-linecap="round" class="BottomRight"></path><path d="M1400 427L1615 642" stroke-width="10" stroke="url(&quot;#SvgjsLinearGradient1032&quot;)" stroke-linecap="round" class="TopLeft"></path><path d="M563 290L121 -152" stroke-width="10" stroke="url(&quot;#SvgjsLinearGradient1032&quot;)" stroke-linecap="round" class="TopLeft"></path><path d="M522 555L100 133" stroke-width="8" stroke="url(&quot;#SvgjsLinearGradient1032&quot;)" stroke-linecap="round" class="TopLeft"></path><path d="M253 75L634 456" stroke-width="6" stroke="url(&quot;#SvgjsLinearGradient1032&quot;)" stroke-linecap="round" class="TopLeft"></path><path d="M1131 520L653 42" stroke-width="10" stroke="url(&quot;#SvgjsLinearGradient1032&quot;)" stroke-linecap="round" class="TopLeft"></path><path d="M1095 531L826 262" stroke-width="6" stroke="url(&quot;#SvgjsLinearGradient1032&quot;)" stroke-linecap="round" class="TopLeft"></path><path d="M455 170L93 -192" stroke-width="10" stroke="url(&quot;#SvgjsLinearGradient1032&quot;)" stroke-linecap="round" class="TopLeft"></path><path d="M172 240L343 411" stroke-width="6" stroke="url(&quot;#SvgjsLinearGradient1031&quot;)" stroke-linecap="round" class="BottomRight"></path><path d="M471 245L771 545" stroke-width="8" stroke="url(&quot;#SvgjsLinearGradient1032&quot;)" stroke-linecap="round" class="TopLeft"></path><path d="M949 521L780 352" stroke-width="8" stroke="url(&quot;#SvgjsLinearGradient1031&quot;)" stroke-linecap="round" class="BottomRight"></path><path d="M103 446L-207 136" stroke-width="8" stroke="url(&quot;#SvgjsLinearGradient1032&quot;)" stroke-linecap="round" class="TopLeft"></path><path d="M1059 521L639 101" stroke-width="8" stroke="url(&quot;#SvgjsLinearGradient1031&quot;)" stroke-linecap="round" class="BottomRight"></path><path d="M455 56L944 545" stroke-width="6" stroke="url(&quot;#SvgjsLinearGradient1032&quot;)" stroke-linecap="round" class="TopLeft"></path><path d="M1328 179L1536 387" stroke-width="6" stroke="url(&quot;#SvgjsLinearGradient1032&quot;)" stroke-linecap="round" class="TopLeft"></path><path d="M1043 166L711 -166" stroke-width="8" stroke="url(&quot;#SvgjsLinearGradient1032&quot;)" stroke-linecap="round" class="TopLeft"></path><path d="M983 368L1452 837" stroke-width="6" stroke="url(&quot;#SvgjsLinearGradient1032&quot;)" stroke-linecap="round" class="TopLeft"></path><path d="M1170 274L715 -181" stroke-width="10" stroke="url(&quot;#SvgjsLinearGradient1031&quot;)" stroke-linecap="round" class="BottomRight"></path><path d="M512 162L62 -288" stroke-width="10" stroke="url(&quot;#SvgjsLinearGradient1031&quot;)" stroke-linecap="round" class="BottomRight"></path><path d="M770 50L579 -141" stroke-width="6" stroke="url(&quot;#SvgjsLinearGradient1031&quot;)" stroke-linecap="round" class="BottomRight"></path><path d="M1214 660L1452 898" stroke-width="6" stroke="url(&quot;#SvgjsLinearGradient1032&quot;)" stroke-linecap="round" class="TopLeft"></path><path d="M397 638L-16 225" stroke-width="6" stroke="url(&quot;#SvgjsLinearGradient1032&quot;)" stroke-linecap="round" class="TopLeft"></path><path d="M493 612L713 832" stroke-width="8" stroke="url(&quot;#SvgjsLinearGradient1031&quot;)" stroke-linecap="round" class="BottomRight"></path><path d="M995 497L810 312" stroke-width="8" stroke="url(&quot;#SvgjsLinearGradient1032&quot;)" stroke-linecap="round" class="TopLeft"></path><path d="M385 574L836 1025" stroke-width="10" stroke="url(&quot;#SvgjsLinearGradient1031&quot;)" stroke-linecap="round" class="BottomRight"></path><path d="M560 88L985 513" stroke-width="8" stroke="url(&quot;#SvgjsLinearGradient1032&quot;)" stroke-linecap="round" class="TopLeft"></path><path d="M289 453L507 671" stroke-width="10" stroke="url(&quot;#SvgjsLinearGradient1031&quot;)" stroke-linecap="round" class="BottomRight"></path></g><defs><mask id="SvgjsMask1030"><rect width="1440" height="660" fill="#ffffff"></rect></mask><linearGradient x1="0%" y1="0%" x2="100%" y2="100%" id="SvgjsLinearGradient1031"><stop stop-color="rgba(22, 88, 159, 0)" offset="0"></stop><stop stop-color="rgba(22, 88, 159, 1)" offset="1"></stop></linearGradient><linearGradient x1="100%" y1="100%" x2="0%" y2="0%" id="SvgjsLinearGradient1032"><stop stop-color="rgba(22, 88, 159, 0)" offset="0"></stop><stop stop-color="rgba(22, 88, 159, 1)" offset="1"></stop></linearGradient></defs></svg>